<svg xmlns="http://www.w3.org/2000/svg" viewBox="0 0 800 600"><defs><style>.cls-1{fill:#fdfbe1;}.cls-2{fill:#ec6922;}</style></defs><title>ninka</title><g id="レイヤー_2" data-name="レイヤー 2"><rect class="cls-1" x="-56.08" y="-46" width="986.08" height="754"/><path class="cls-2" d="M690.37,313.61c-5.78,0-10.29,3.19-11.47,7.89A48.13,48.13,0,0,0,650.52,312c-38.23,0-51.87,29.9-51.87,57.88,0,28.19,13.61,58.31,51.84,58.31a45.27,45.27,0,0,0,28.94-10.18c.52,5.08,5.24,8.68,11.38,8.68,6.52,0,11.43-4.06,11.43-9.65v-93C702.23,318,697.15,313.61,690.37,313.61ZM650.47,407c-21.46,0-29.11-19.16-29.11-37.08,0-8.6,2.1-36.65,29.11-36.65,27.51,0,28.9,30.53,28.9,36.65S678,407,650.47,407Z"/><path class="cls-2" d="M574.87,409.24l-45.18-46.17,39.79-29.2a11,11,0,0,0,4.47-8.59,11.86,11.86,0,0,0-11.45-11.67,13,13,0,0,0-7,2.18l-44.11,32.74V184a12.72,12.72,0,0,0-12.68-12.69l-266.77.44a12.69,12.69,0,0,0-12.66,12.69V379.68S148,291.47,119.66,256.33c-7.29-9-21.89-3.88-21.89,7.74V415.32a13,13,0,0,0,13,13h0a13,13,0,0,0,13-13V301.24L223.4,423.7a12.31,12.31,0,0,0,21.86-7.77V305a75.94,75.94,0,0,0,104-110.58h139V405.54h-39V355.13c0-22.49-13.48-45.18-43.85-45.18-11.26,0-21.66,3.11-29.54,8.59-1.51-4.32-5.84-7.2-11.47-7.2-7,0-12,4.47-12,10.62v83.59l-44.1.05V346.3c0-16.65-26-16.65-26,0v69.92a12.51,12.51,0,0,0,12.51,12.51l205.13-.05a11.6,11.6,0,0,0,11.57-11.57V377.49l46.81,47.77a11.2,11.2,0,0,0,8,3.42c6.55,0,12.09-5.34,12.09-11.67A11.07,11.07,0,0,0,574.87,409.24ZM359.43,247.73a64.28,64.28,0,1,1-64.28-64.28A64.35,64.35,0,0,1,359.43,247.73Zm65.15,157.8H376.86v-43c0-14.44,9.93-29.9,24.73-29.9,17,0,23,12.56,23,23.31Z"/><path class="cls-2" d="M295.16,233.56l-24.64-30.48H255.93a1.34,1.34,0,0,0-1.05,2.21l31,38.28h-21v13H288v7.23H264.86v13H288v24.58h14.46V276.83H325.6v-13H302.46v-7.23H325.6v-13H304.49l31-38.28a1.34,1.34,0,0,0-1.05-2.21H319.8Z"/></g></svg>