<svg xmlns="http://www.w3.org/2000/svg" viewBox="0 0 353.23 168.82"><defs><style>.cls-1{fill:#87bd42;}.cls-2{fill:#e72c2c;}.cls-29,.cls-3{fill:#0c8c43;}.cls-4{fill:#fac000;}.cls-10,.cls-14,.cls-16,.cls-4{stroke:#fff;}.cls-10,.cls-14,.cls-16,.cls-20,.cls-23,.cls-24,.cls-25,.cls-28,.cls-4{stroke-miterlimit:10;}.cls-10,.cls-16,.cls-4{stroke-width:1.44px;}.cls-23,.cls-24,.cls-25,.cls-31,.cls-32,.cls-5{fill:#fff;}.cls-6{fill:#b3b3b3;}.cls-7{fill:#71c7d5;}.cls-8{fill:#076baf;}.cls-9{fill:#00a0e9;}.cls-10,.cls-14{fill:#18499d;}.cls-11{fill:#e55927;}.cls-12{fill:#6ab82d;}.cls-13{fill:#666;}.cls-14{stroke-width:1.73px;}.cls-15{fill:#ced3c2;}.cls-16{fill:#ffecbb;}.cls-17,.cls-20{fill:#323333;}.cls-18,.cls-21{fill:#e71f19;}.cls-19{writing-mode:tb;text-orientation:upright;glyph-orientation-vertical:0deg;}.cls-19,.cls-21,.cls-22,.cls-29,.cls-32{font-size:6.68px;}.cls-19,.cls-22{fill:#4d4d4d;}.cls-19,.cls-21,.cls-22,.cls-23,.cls-24,.cls-25,.cls-29,.cls-31,.cls-32{font-family:YuGothic-Bold, Yu Gothic;font-weight:700;}.cls-20{stroke:#e71f19;}.cls-20,.cls-28{stroke-width:4.64px;}.cls-23{font-size:14.24px;stroke:#076baf;}.cls-23,.cls-24,.cls-25{stroke-width:0.47px;}.cls-24{font-size:9.35px;stroke:#666;}.cls-25{font-size:12px;stroke:#00a0e9;}.cls-26{fill:#f8c4ab;}.cls-27{fill:#e8e5e4;}.cls-28,.cls-30{fill:#006536;}.cls-28{stroke:#0c8c43;}.cls-31{font-size:8.01px;}</style></defs><title>bootleg</title><g id="レイヤー_2" data-name="レイヤー 2"><g id="レイヤー_2-2" data-name="レイヤー 2"><path class="cls-1" d="M312.41,9.34c-22.49,0-40.72,4.78-40.72,10.67,0,5.23,14.35,9.58,33.29,10.49l2.93,4.38,1.43-4.23c1,0,2,0,3.06,0,22.49,0,40.72-4.78,40.72-10.67S334.9,9.34,312.41,9.34Z"/><line class="cls-2" x1="305.53" y1="83.81" x2="256.78" y2="24.26"/><polygon class="cls-3" points="303.52 85.46 265.34 38.82 262.61 44.02 256.78 24.26 275 33.87 269.36 35.52 307.55 82.16 303.52 85.46"/><circle class="cls-4" cx="283.87" cy="57.93" r="9.29"/><path class="cls-5" d="M285.39,57.79h2.54v1.14h-3.15v1.26h3.15v1.15h-3.15v1.91h-1.66V61.34h-3.17V60.19h3.17V58.93h-3.17V57.79h2.45l-3-4.5h1.93l2.55,3.91,2.55-3.91h1.86Z"/><line class="cls-6" x1="44.54" y1="109.82" x2="103.28" y2="109.65"/><polygon class="cls-7" points="44.54 107.22 86.59 107.09 84.27 101.69 103.28 109.64 84.32 117.71 86.6 112.3 44.55 112.43 44.54 107.22"/><circle class="cls-8" cx="25.75" cy="7.78" r="7.65"/><rect class="cls-8" x="15.69" y="22.33" width="20.12" height="13.83"/><path class="cls-8" d="M35.84,22.33c0,4.21-4.53,7.66-10.06,7.66s-10.06-3.45-10.06-7.66,4.53-7.66,10.06-7.66S35.84,18.12,35.84,22.33Z"/><circle class="cls-9" cx="142.53" cy="102.87" r="7.65"/><rect class="cls-9" x="132.47" y="117.43" width="20.12" height="13.83"/><path class="cls-9" d="M152.62,117.43c0,4.21-4.53,7.66-10.06,7.66s-10.06-3.45-10.06-7.66,4.53-7.66,10.06-7.66S152.62,113.21,152.62,117.43Z"/><line class="cls-6" x1="33.4" y1="42.73" x2="33.4" y2="92.86"/><polygon class="cls-7" points="36.01 42.73 36.01 76.18 41.41 73.88 33.4 92.86 25.39 73.88 30.8 76.18 30.8 42.73 36.01 42.73"/><rect class="cls-10" x="28.63" y="61.08" width="9.54" height="9.54"/><line class="cls-11" x1="18.08" y1="92.86" x2="18.08" y2="42.73"/><polygon class="cls-12" points="15.48 92.86 15.48 59.42 10.07 61.71 18.08 42.73 26.09 61.71 20.68 59.42 20.68 92.86 15.48 92.86"/><circle class="cls-4" cx="18.08" cy="68.98" r="5.89"/><path class="cls-5" d="M19,68.89h1.61v.72h-2v.8h2v.73h-2v1.21H17.6V71.14h-2v-.73h2v-.8h-2v-.72h1.56L15.26,66h1.23l1.62,2.48L19.72,66H20.9Z"/><circle class="cls-13" cx="25.76" cy="102.87" r="7.65"/><rect class="cls-13" x="15.7" y="117.43" width="20.12" height="13.83"/><path class="cls-13" d="M35.86,117.43c0,4.21-4.53,7.66-10.06,7.66s-10.06-3.45-10.06-7.66,4.53-7.66,10.06-7.66S35.86,113.21,35.86,117.43Z"/><rect class="cls-14" x="59.44" y="101.16" width="12.71" height="12.7"/><rect class="cls-14" x="63.7" y="105.06" width="12.7" height="12.7"/><polygon class="cls-15" points="106.11 85.58 67.92 38.94 65.19 44.15 59.37 24.39 77.59 34 71.95 35.65 110.14 82.28 106.11 85.58"/><circle class="cls-16" cx="86.46" cy="58.06" r="9.29"/><path class="cls-5" d="M88,57.91h2.54v1.14H87.36v1.26h3.15v1.15H87.36v1.91H85.7V61.46H82.53V60.31H85.7V59.05H82.53V57.91H85l-3-4.5h1.93l2.55,3.91L89,53.42h1.86Z"/><line class="cls-17" x1="102.41" y1="126.83" x2="43.68" y2="126.65"/><polygon class="cls-18" points="102.4 129.43 60.35 129.31 62.63 134.72 43.68 126.66 62.68 118.7 60.37 124.1 102.42 124.23 102.4 129.43"/><circle class="cls-4" cx="76.83" cy="126.83" r="5.89"/><path class="cls-5" d="M77.79,126.74H79.4v.72h-2v.8h2V129h-2v1.21H76.34V129h-2v-.73h2v-.8h-2v-.72h1.56L74,123.89h1.23l1.62,2.48,1.62-2.48h1.18Z"/><text></text><circle class="cls-4" cx="79.65" cy="129.98" r="5.89"/><path class="cls-5" d="M80.61,129.89h1.61v.72h-2v.8h2v.73h-2v1.21H79.16v-1.21h-2v-.73h2v-.8h-2v-.72h1.56L76.83,127h1.23l1.62,2.48L81.29,127h1.18Z"/><circle class="cls-9" cx="119.5" cy="102.87" r="7.65"/><rect class="cls-9" x="109.44" y="117.43" width="20.12" height="13.83"/><path class="cls-9" d="M129.59,117.43c0,4.21-4.53,7.66-10.06,7.66s-10.06-3.45-10.06-7.66,4.53-7.66,10.06-7.66S129.59,113.21,129.59,117.43Z"/><text class="cls-19" transform="translate(5.34 42.73)">①<tspan x="0" y="6.68"> </tspan><tspan x="0" y="8.58">正式な支払い</tspan></text><text class="cls-19" transform="translate(44.99 42.73)">②<tspan x="0" y="6.68"> </tspan><tspan x="0" y="8.58">コンテンツ</tspan></text><line class="cls-20" x1="98.35" y1="57.65" x2="117.78" y2="77.04"/><line class="cls-20" x1="117.9" y1="57.65" x2="98.35" y2="77.04"/><text class="cls-21" transform="translate(51.87 143.48)">③ 不正な利益</text><text class="cls-22" transform="translate(51.87 98.56)">④ コピー品</text><text class="cls-21" transform="translate(90.91 42.61)">⑤ 作者に支払われない</text><text class="cls-23" transform="translate(11.7 37.47)">作者</text><text class="cls-24" transform="translate(11.7 122.72)">海賊版<tspan x="0" y="10.46">販売者</tspan></text><text class="cls-25" transform="translate(112.93 133.51)">消費者</text><text></text><line class="cls-6" x1="241.96" y1="109.7" x2="300.69" y2="109.52"/><polygon class="cls-7" points="241.95 107.1 284 106.97 281.69 101.57 300.69 109.52 281.74 117.59 284.01 112.17 241.96 112.3 241.95 107.1"/><circle class="cls-8" cx="223.16" cy="7.65" r="7.65"/><rect class="cls-8" x="213.1" y="22.21" width="20.12" height="13.83"/><path class="cls-8" d="M233.25,22.21c0,4.21-4.53,7.66-10.06,7.66s-10.06-3.45-10.06-7.66,4.53-7.66,10.06-7.66S233.25,18,233.25,22.21Z"/><circle class="cls-9" cx="339.94" cy="102.75" r="7.65"/><rect class="cls-9" x="329.88" y="117.3" width="20.12" height="13.83"/><path class="cls-9" d="M350,117.3c0,4.21-4.53,7.66-10.06,7.66s-10.06-3.45-10.06-7.66,4.53-7.66,10.06-7.66S350,113.09,350,117.3Z"/><line class="cls-6" x1="230.82" y1="42.61" x2="230.82" y2="92.74"/><polygon class="cls-7" points="233.42 42.6 233.42 76.05 238.83 73.75 230.82 92.74 222.81 73.75 228.21 76.05 228.21 42.6 233.42 42.6"/><rect class="cls-10" x="226.05" y="60.95" width="9.54" height="9.54"/><line class="cls-11" x1="215.49" y1="92.74" x2="215.49" y2="42.61"/><polygon class="cls-12" points="212.89 92.74 212.89 59.29 207.48 61.59 215.49 42.6 223.5 61.59 218.09 59.29 218.09 92.74 212.89 92.74"/><circle class="cls-4" cx="215.49" cy="68.85" r="5.89"/><path class="cls-5" d="M216.45,68.76h1.61v.72h-2v.8h2V71h-2v1.21H215V71h-2v-.73h2v-.8h-2v-.72h1.56l-1.89-2.85h1.23l1.62,2.48,1.62-2.48h1.18Z"/><circle class="cls-13" cx="223.18" cy="102.75" r="7.65"/><rect class="cls-13" x="213.12" y="117.3" width="20.12" height="13.83"/><path class="cls-13" d="M233.27,117.3c0,4.21-4.53,7.66-10.06,7.66s-10.06-3.45-10.06-7.66,4.53-7.66,10.06-7.66S233.27,113.09,233.27,117.3Z"/><rect class="cls-14" x="256.85" y="101.03" width="12.71" height="12.7"/><rect class="cls-14" x="261.12" y="104.93" width="12.7" height="12.7"/><line class="cls-26" x1="299.82" y1="126.71" x2="241.09" y2="126.53"/><polygon class="cls-27" points="299.82 129.31 257.77 129.18 260.05 134.6 241.09 126.53 260.09 118.58 257.78 123.98 299.83 124.1 299.82 129.31"/><circle class="cls-16" cx="274.24" cy="126.71" r="5.89"/><path class="cls-5" d="M275.2,126.61h1.61v.72h-2v.8h2v.73h-2v1.21h-1.05v-1.21h-2v-.73h2v-.8h-2v-.72h1.56l-1.89-2.85h1.23l1.62,2.48,1.62-2.48h1.18Z"/><circle class="cls-16" cx="277.06" cy="129.85" r="5.89"/><path class="cls-5" d="M278,129.76h1.61v.72h-2v.8h2V132h-2v1.21h-1.05V132h-2v-.73h2v-.8h-2v-.72h1.56l-1.89-2.85h1.23l1.62,2.48,1.62-2.48h1.18Z"/><circle class="cls-9" cx="316.91" cy="102.75" r="7.65"/><rect class="cls-9" x="306.85" y="117.3" width="20.12" height="13.83"/><path class="cls-9" d="M327,117.3c0,4.21-4.53,7.66-10.06,7.66s-10.06-3.45-10.06-7.66,4.53-7.66,10.06-7.66S327,113.09,327,117.3Z"/><text class="cls-19" transform="translate(202.75 42.61)">②<tspan x="0" y="6.68"> </tspan><tspan x="0" y="8.58">正式な支払い</tspan></text><text class="cls-19" transform="translate(242.4 42.61)">①<tspan x="0" y="6.68"> </tspan><tspan x="0" y="8.58">コンテンツ</tspan></text><line class="cls-28" x1="268.69" y1="118.74" x2="284.65" y2="134.66"/><line class="cls-28" x1="284.75" y1="118.74" x2="268.69" y2="134.66"/><text class="cls-29" transform="translate(244.74 143.88)">③ 不正な利益を遮断</text><text class="cls-22" transform="translate(249.29 98.43)">④ コピー品</text><text class="cls-29" transform="translate(288.32 42.73)">⑤ 正式な支払い</text><text class="cls-23" transform="translate(209.11 37.34)">作者</text><text class="cls-24" transform="translate(209.11 122.59)">海賊版<tspan x="0" y="10.46">販売者</tspan></text><text class="cls-25" transform="translate(310.84 133.51)">消費者</text><polygon class="cls-30" points="193.74 72.21 174.1 50.14 174.11 58.6 162.41 58.6 162.41 85.84 174.13 85.84 174.13 94.31 193.74 72.21"/><text class="cls-31" transform="translate(167.33 71.11)">任価<tspan x="0" y="8.46">適用</tspan></text><text class="cls-32" transform="translate(280.06 22.56)">任意の支払時期による</text><path class="cls-1" d="M312.51,147.46a140.11,140.11,0,0,0-19,1.24l-3.29-3.13-.4,3.7c-10.87,1.92-18,5.17-18,8.86,0,5.89,18.23,10.67,40.72,10.67s40.72-4.78,40.72-10.67S335,147.46,312.51,147.46Z"/><text class="cls-32" transform="translate(280.16 160.68)">任意の支払金額による</text><path class="cls-11" d="M117.9,147.47a140.11,140.11,0,0,0-19,1.24l-3.29-3.13-.4,3.7c-10.87,1.92-18,5.17-18,8.86,0,5.89,18.23,10.67,40.72,10.67s40.72-4.78,40.72-10.67S140.39,147.47,117.9,147.47Z"/><text class="cls-32" transform="translate(107.4 160.69)">低価格</text><path class="cls-11" d="M117.78,8.13c-22.49,0-40.72,4.78-40.72,10.67,0,5.23,14.35,9.58,33.29,10.49l2.93,4.38,1.43-4.23c1,0,2,0,3.06,0,22.49,0,40.72-4.78,40.72-10.67S140.27,8.13,117.78,8.13Z"/><text class="cls-32" transform="translate(88.32 21.35)">先払いでは払えない</text><text></text></g></g></svg>