<svg xmlns="http://www.w3.org/2000/svg" xmlns:xlink="http://www.w3.org/1999/xlink" viewBox="0 0 800 600"><defs><style>.cls-1{fill:url(#名称未設定グラデーション_11);}.cls-2{fill:#fdfbe1;}.cls-3{fill:#72c8d5;}.cls-11,.cls-17,.cls-20,.cls-21,.cls-22,.cls-4{fill:#fff;}.cls-16,.cls-21,.cls-4{stroke:#ec6922;}.cls-4{stroke-linejoin:round;stroke-width:4.75px;}.cls-5{fill:#7f8080;}.cls-14,.cls-15,.cls-6{fill:#ec6922;}.cls-7{fill:#666767;}.cls-8{fill:#989898;}.cls-9{fill:#4e4d4d;}.cls-10{fill:#9d886e;}.cls-12{mask:url(#mask);}.cls-13{fill:#192d79;}.cls-14,.cls-18{stroke:#fff;}.cls-14,.cls-16,.cls-18,.cls-21{stroke-miterlimit:10;}.cls-14{stroke-width:2.94px;}.cls-15,.cls-22{font-size:26.5px;}.cls-15,.cls-18,.cls-20,.cls-22{font-family:YuGothic-Bold, Yu Gothic;font-weight:700;}.cls-16{fill:#040000;}.cls-16,.cls-21{stroke-width:4.42px;}.cls-17{opacity:0;}.cls-18,.cls-20{font-size:29.45px;}.cls-18{fill:#717071;stroke-width:0.44px;}.cls-19{letter-spacing:0.25em;}</style><linearGradient id="名称未設定グラデーション_11" x1="399.69" y1="600" x2="399.69" y2="393.29" gradientUnits="userSpaceOnUse"><stop offset="0" stop-color="#fff"/><stop offset="0.2" stop-color="#bbbaba"/><stop offset="0.42" stop-color="#7b7878"/><stop offset="0.61" stop-color="#474545"/><stop offset="0.78" stop-color="#231f1f"/><stop offset="0.91" stop-color="#0c0808"/><stop offset="1" stop-color="#040000"/></linearGradient><mask id="mask" x="-0.59" y="393.29" width="800.57" height="206.71" maskUnits="userSpaceOnUse"><rect class="cls-1" x="-0.59" y="393.29" width="800.57" height="206.71"/></mask></defs><title>about</title><g id="レイヤー_2" data-name="レイヤー 2"><rect class="cls-2" x="-0.11" y="-30.26" width="800.08" height="620.26"/><path class="cls-3" d="M682.08,380.31a318.67,318.67,0,0,1-89.53-31.52c-30.65-16.48-51.58-29.26-94.93-47.44-57.28-24-98.1-34-221.41-53.47S391.83,212.3,412.48,200,143,149.28,143,149.28c-6.56-.59-1.07,11.78,58.81,11.78,15.81,0,157.89,24.38,189.18,34.25,20,6.31-150.2,17.58-170.85,30.47s-6.48,25.78,60.56,41,196.12,39.42,193.62,85.09c-3.26,59.57-417,43.37-474.91,40.81V640H800V394.55C753.74,391.32,713.87,386.55,682.08,380.31Z"/><rect class="cls-4" x="49.92" y="36.23" width="707.38" height="122.83" rx="34.61" ry="34.61"/><path class="cls-5" d="M144.61,52.59H136V63.12a2.87,2.87,0,0,1-5.75,0V52.59h-8.62a4.79,4.79,0,0,0-4.79,4.79V74.61h16.28a2.87,2.87,0,0,1,0,5.75H116.84a4.79,4.79,0,0,0,4.79,4.79h23a4.79,4.79,0,0,0,4.79-4.79v-23A4.79,4.79,0,0,0,144.61,52.59Z"/><path class="cls-6" d="M202.08,90.9h-23a4.79,4.79,0,0,0-4.79,4.79v23a4.79,4.79,0,0,0,4.79,4.79h8.62l-1.92-13.41h9.58l-1.92,13.41h8.62a4.79,4.79,0,0,0,4.79-4.79v-23A4.79,4.79,0,0,0,202.08,90.9Zm-11.49,15.32a4.79,4.79,0,1,1,4.79-4.79A4.79,4.79,0,0,1,190.58,106.22Z"/><path class="cls-7" d="M182.92,52.59h-23a4.79,4.79,0,0,0-4.79,4.79v23a4.79,4.79,0,0,0,4.79,4.79h6.7V76.53a4.79,4.79,0,0,1,9.58,0v8.62h6.7a4.79,4.79,0,0,0,4.79-4.79v-23A4.79,4.79,0,0,0,182.92,52.59ZM171.43,67.91a4.79,4.79,0,1,1,4.79-4.79A4.79,4.79,0,0,1,171.43,67.91Z"/><path class="cls-8" d="M91.94,60.25a2.87,2.87,0,0,1,2.87-2.87h16.28a4.79,4.79,0,0,0-4.79-4.79h-23a4.79,4.79,0,0,0-4.79,4.79V74.61H94.81a2.87,2.87,0,0,1,0,5.75H78.53a4.79,4.79,0,0,0,4.79,4.79h23a4.79,4.79,0,0,0,4.79-4.79V63.12H94.81A2.87,2.87,0,0,1,91.94,60.25Z"/><path class="cls-9" d="M248,59.29h16.28V57.38a4.79,4.79,0,0,0-4.79-4.79h-23a4.79,4.79,0,0,0-4.79,4.79v23a4.79,4.79,0,0,0,4.79,4.79h23a4.79,4.79,0,0,0,4.79-4.79V78.45H248a2.87,2.87,0,1,1,0-5.75h16.28V65H248a2.87,2.87,0,1,1,0-5.75Z"/><path class="cls-6" d="M267.2,97.6h16.28V95.68a4.79,4.79,0,0,0-4.79-4.79h-23a4.79,4.79,0,0,0-4.79,4.79v23a4.79,4.79,0,0,0,4.79,4.79h23a4.79,4.79,0,0,0,4.79-4.79v-1.92H267.2a2.87,2.87,0,1,1,0-5.75h16.28v-7.66H267.2a2.87,2.87,0,1,1,0-5.75Z"/><path class="cls-6" d="M168.56,103.35V95.68a4.79,4.79,0,0,0-4.79-4.79h-23A4.79,4.79,0,0,0,136,95.68v23a4.79,4.79,0,0,0,4.79,4.79h6.7L149.4,111h5.75l1.92,12.45h6.7a4.79,4.79,0,0,0,4.79-4.79v-5.75a4.79,4.79,0,0,1,0-9.58Zm-16.28,2.87a4.79,4.79,0,1,1,4.79-4.79A4.79,4.79,0,0,1,152.28,106.22Z"/><path class="cls-9" d="M225.06,64.08h1v-6.7a4.79,4.79,0,0,0-4.79-4.79h-8.62v8.62a2.87,2.87,0,1,1-5.75,0V52.59h-8.62a4.79,4.79,0,0,0-4.79,4.79v23a4.79,4.79,0,0,0,4.79,4.79h8.62V76.53a2.87,2.87,0,1,1,5.75,0v8.62h8.62A4.79,4.79,0,0,0,226,80.36v-6.7h-1a4.79,4.79,0,1,1,0-9.58Z"/><path class="cls-6" d="M244.22,102.39h1v-6.7a4.79,4.79,0,0,0-4.79-4.79h-8.62v8.62a2.87,2.87,0,0,1-5.75,0V90.9H217.4a4.79,4.79,0,0,0-4.79,4.79v23a4.79,4.79,0,0,0,4.79,4.79H226v-8.62a2.87,2.87,0,0,1,5.75,0v8.62h8.62a4.79,4.79,0,0,0,4.79-4.79V112h-1a4.79,4.79,0,0,1,0-9.58Z"/><path class="cls-10" d="M84.28,87.06a5.75,5.75,0,0,0-5.75,5.75V97.6a5.75,5.75,0,0,0,5.75,5.75h41.18a5.75,5.75,0,0,0,5.75-5.75V92.81A3.83,3.83,0,0,1,135,89h149.4V87.06Z"/><path class="cls-11" d="M82.74,93.28a12.74,12.74,0,0,1,2.39.9l-.63,1.25a14,14,0,0,0-2.39-1Zm.12,4.36a9.36,9.36,0,0,0,6.32-5.18,13.17,13.17,0,0,0,1.27,1,10.68,10.68,0,0,1-6.36,5.39.26.26,0,0,1-.16.28Zm1.07-6.7a15.41,15.41,0,0,1,2.42.95l-.72,1.23a13.07,13.07,0,0,0-2.36-1Z"/><path class="cls-11" d="M99.05,94.12a.29.29,0,0,1-.18.12,8.91,8.91,0,0,1-1.71,2.6,6,6,0,0,0-.94-.67,7.57,7.57,0,0,0,1-1.36l-1.59.34.87,3.79-1.18.24-.85-3.77-1.83.43-.27-1.07,1.88-.4-.45-1.86,1.47-.15c0,.11-.1.18-.21.24l.35,1.51L98,93.55l.11-.07Z"/><path class="cls-11" d="M109.27,92.67V94H107.4a.23.23,0,0,1-.2.12,6.78,6.78,0,0,1-3,5,11.61,11.61,0,0,0-1.29-.89A5.61,5.61,0,0,0,105.68,94h-1.86a10.73,10.73,0,0,1-1.34,1.75,12.5,12.5,0,0,0-1.33-.7,8.91,8.91,0,0,0,2.47-4.45l1.76.35a.29.29,0,0,1-.29.17c-.1.33-.33.95-.57,1.49Z"/><path class="cls-11" d="M118.73,93.84a.42.42,0,0,1-.21.17,6.72,6.72,0,0,1-5.2,5.17,5.8,5.8,0,0,0-.89-1.15c2.31-.55,3.88-1.85,4.27-3.27h-5.54V93.4h6.16l.16-.11Zm-1.15-1.53H112.1V91h5.49Z"/><path class="cls-11" d="M128.42,92.67V94h-1.87a.23.23,0,0,1-.2.12,6.78,6.78,0,0,1-3,5,11.58,11.58,0,0,0-1.29-.89A5.61,5.61,0,0,0,124.83,94H123a10.74,10.74,0,0,1-1.34,1.75,12.5,12.5,0,0,0-1.33-.7,8.91,8.91,0,0,0,2.47-4.45l1.76.35a.29.29,0,0,1-.29.17c-.1.33-.33.95-.57,1.49Z"/><g class="cls-12"><rect class="cls-13" x="-0.59" y="393.29" width="800.57" height="206.71"/></g><path class="cls-14" d="M413.95,465.86a24.27,24.27,0,1,0-23.28,0,24.68,24.68,0,0,0-20.25,24.27v42H434.2v-42A24.68,24.68,0,0,0,413.95,465.86Z"/><path class="cls-6" d="M414,93.31a23.51,23.51,0,1,0-22.56,0,23.91,23.91,0,0,0-19.63,23.52v40.69h61.81V116.83A23.91,23.91,0,0,0,414,93.31Z"/><text class="cls-15" transform="translate(438.96 146.78)">ゲームクリエイタ</text><path class="cls-6" d="M290.44,472.19,295.73,459a147,147,0,0,1,14-265.23l1.36-.56,3.83,9.26-1.36.56A137,137,0,0,0,299.48,449.6L304.91,436l52.75,42.08Z"/><path class="cls-11" d="M310.27,195.1l2.71,6.54a138.45,138.45,0,0,0-12.75,250l5.31-13.28,47.38,37.8-60.38-5.31,5-12.59a145.58,145.58,0,0,1,12.69-263.2m1.59-3.85-2.72,1.13a148.46,148.46,0,0,0-15.26,267.25l-4.07,10.17-1.47,3.68,3.95.35,60.38,5.31,9.73.86-7.63-6.09-47.38-37.8-3.1-2.47-1.47,3.68-4.07,10.17A135.55,135.55,0,0,1,314.1,204.36l2.72-1.13-1.13-2.72L313,194l-1.13-2.72Z"/><path class="cls-6" d="M475.4,469.72l1.39-.49c43.09-15.17,76.67-52.18,87.64-96.59a136.93,136.93,0,0,0-63.56-150.93l-5.64,13.75-52.39-42.54L510,199.42l-5.3,12.94A146.94,146.94,0,0,1,574.16,375c-11.77,47.64-47.81,87.36-94,103.64l-1.39.49Z"/><path class="cls-11" d="M447.57,194.86l60.33,5.83-5,12.3A145.47,145.47,0,0,1,572.73,374.7c-11.66,47.17-47.33,86.48-93.1,102.6l-2.35-6.68c43.55-15.33,77.49-52.74,88.58-97.62a138.41,138.41,0,0,0-65.71-153.41l-5.53,13.48-47.06-38.21M438.13,191l7.58,6.16,47.06,38.21,3.08,2.5,1.5-3.67,4.24-10.33A135.46,135.46,0,0,1,563,372.29c-10.86,43.93-44.08,80.54-86.7,95.55l-2.78,1,1,2.78,2.35,6.68,1,2.78,2.78-1c46.7-16.44,83.09-56.55,95-104.67a148.41,148.41,0,0,0-69-163.68l4.07-9.92,1.5-3.67-3.94-.38-60.33-5.83-9.72-.94Z"/><circle class="cls-16" cx="243.55" cy="337.76" r="70.11"/><path class="cls-11" d="M302.14,320.21A.15.15,0,0,0,302,320c-2.45,1.6-10.57,7.32-10.57,11.71,0,3.37,3.6,8.76-4.86,19.37a.15.15,0,0,0,.19.22c2.45-1.6,10.55-7.36,10.55-11.74C297.27,336.17,293.68,330.81,302.14,320.21Z"/><rect class="cls-17" x="286.48" y="319.93" width="15.69" height="31.38"/><path class="cls-11" d="M252.86,319.93h15.69c-5.14,6.86-7.29,26.65-7.75,31.29a.1.1,0,0,1-.19,0C260.15,346.58,258,326.78,252.86,319.93Z"/><rect class="cls-17" x="252.86" y="319.93" width="15.69" height="31.38"/><path class="cls-11" d="M276.6,362.26h0a2.24,2.24,0,0,1-2.24-2.24h0a2.24,2.24,0,0,1,2.24-2.24h0a2.24,2.24,0,0,1,2.24,2.24h0A2.24,2.24,0,0,1,276.6,362.26Zm1.6-1.6v-1.28a1,1,0,0,0-1-1h0a1,1,0,0,0-1,1v1.28a1,1,0,0,0,1,1h0A1,1,0,0,0,278.2,360.66Z"/><path class="cls-11" d="M298,359.06v-.16a.48.48,0,0,0-.48-.48h-.32a.48.48,0,0,0-.48.48v.32a.48.48,0,0,0,.48.48h1.12a1,1,0,0,1,1,1v.64a1,1,0,0,1-1,1H295.8a1,1,0,0,1-1-1V361h1.28v.16a.48.48,0,0,0,.48.48h.32a.48.48,0,0,0,.48-.48v-.32a.48.48,0,0,0-.48-.48H295.8a1,1,0,0,1-1-1v-.64a1,1,0,0,1,1-1h2.56a1,1,0,0,1,1,1v.32Z"/><path class="cls-11" d="M284.6,357.78h4.48v.64h-.8a.48.48,0,0,0-.48.48v3.36h-1.92V358.9a.48.48,0,0,0-.48-.48h-.8Z"/><path class="cls-11" d="M289.72,357.78h1.92v3.36a.48.48,0,0,0,.48.48h1a.48.48,0,0,0,.48-.48v-3.36h.64v3.52a1,1,0,0,1-1,1h-2.56a1,1,0,0,1-1-1Z"/><path class="cls-11" d="M266.68,360.34H268v.8a.48.48,0,0,1-.48.48h-1a.48.48,0,0,1-.48-.48V358.9a.48.48,0,0,1,.48-.48h.32a.48.48,0,0,1,.48.48v.16h1.28v-.32a1,1,0,0,0-1-1h-2.56a1,1,0,0,0-1,1v2.56a1,1,0,0,0,1,1h2.56a1,1,0,0,0,1-1v-1.6h-1.92Z"/><polygon class="cls-11" points="271.16 357.78 271.16 359.7 273.08 359.7 273.08 357.78 273.72 357.78 273.72 362.26 273.08 362.26 273.08 360.34 271.16 360.34 271.16 362.26 269.24 362.26 269.24 357.78 271.16 357.78"/><path class="cls-11" d="M282.68,359.06v-.16a.48.48,0,0,0-.48-.48h-.32a.48.48,0,0,0-.48.48v.32a.48.48,0,0,0,.48.48H283a1,1,0,0,1,1,1v.64a1,1,0,0,1-1,1h-2.56a1,1,0,0,1-1-1V361h1.28v.16a.48.48,0,0,0,.48.48h.32a.48.48,0,0,0,.48-.48v-.32a.48.48,0,0,0-.48-.48h-1.12a1,1,0,0,1-1-1v-.64a1,1,0,0,1,1-1H283a1,1,0,0,1,1,1v.32Z"/><path class="cls-11" d="M263.48,359.7h-2.83a.32.32,0,0,0,0,.64h2.83Z"/><path class="cls-11" d="M300,360.34h2.56a.32.32,0,0,0,0-.64H300Z"/><path class="cls-11" d="M281.73,338.08a5.84,5.84,0,1,1-11.29,0,7.78,7.78,0,1,0,11.29,0Z"/><circle class="cls-11" cx="276.08" cy="335.64" r="1.95"/><path class="cls-11" d="M191.79,343.42a3.89,3.89,0,1,1-3.89-3.89h0v-19.1a.45.45,0,0,0-.88-.1c-1.7,10.65-6.51,16.25-6.88,22.25a8,8,0,0,0,6.43,8.51,7.79,7.79,0,0,0,9.11-7.67Z"/><circle class="cls-11" cx="187.9" cy="343.42" r="1.95"/><ellipse class="cls-11" cx="191.03" cy="336.69" rx="2.92" ry="0.97" transform="translate(-194.77 368.46) rotate(-65.14)"/><ellipse class="cls-11" cx="193.74" cy="340.08" rx="1.94" ry="0.82" transform="translate(-150.91 154.6) rotate(-32.04)"/><circle class="cls-11" cx="225.06" cy="343.42" r="7.78"/><circle class="cls-11" cx="206.53" cy="343.42" r="1.95"/><ellipse class="cls-11" cx="201.67" cy="335.64" rx="0.97" ry="15.56"/><ellipse class="cls-11" cx="211.4" cy="335.64" rx="0.97" ry="15.56"/><path class="cls-11" d="M256.72,305.22a.12.12,0,0,0-.17-.18c-3.67,2.67-19.22,14.54-19.21,23.66,0,6.72,7,15.68-10.42,37.08a.12.12,0,0,0,.17.18c3.67-2.67,19.22-14.54,19.22-23.66C246.3,335.57,239.28,326.61,256.72,305.22Z"/><text class="cls-18" transform="translate(19.3 219.3)">1<tspan class="cls-19" x="16.88" y="0">.</tspan><tspan x="32.45" y="0">ゲームを</tspan></text><text class="cls-20" transform="translate(63.11 526.95)">2<tspan class="cls-19" x="16.88" y="0">.</tspan><tspan x="32.45" y="0">ゲームをプレイ</tspan></text><text class="cls-20" transform="translate(526.57 526.95)">3<tspan class="cls-19" x="16.88" y="0">.</tspan><tspan x="32.45" y="0">ゲームを評価</tspan></text><text class="cls-18" transform="translate(609.67 260.61)">任価する</text><text class="cls-18" transform="translate(52.75 260.61)">ダウンロード</text><circle class="cls-21" cx="553.66" cy="335.64" r="70.11"/><path class="cls-6" d="M607.47,338.16a2.07,2.07,0,0,0-2.12,1.46,8.92,8.92,0,0,0-5.26-1.75c-7.08,0-9.61,5.54-9.61,10.73s2.52,10.81,9.61,10.81a8.39,8.39,0,0,0,5.36-1.89,2,2,0,0,0,2.11,1.61,1.92,1.92,0,0,0,2.12-1.79V340.1A2,2,0,0,0,607.47,338.16Zm-7.39,17.31c-4,0-5.4-3.55-5.4-6.87,0-1.59.39-6.79,5.4-6.79s5.36,5.66,5.36,6.79S605.18,355.47,600.08,355.47Z"/><path class="cls-6" d="M586.07,355.88l-8.37-8.56,7.37-5.41a2,2,0,0,0,.83-1.59,2.2,2.2,0,0,0-2.12-2.16,2.41,2.41,0,0,0-1.31.4l-8.18,6.07v-30.5a2.36,2.36,0,0,0-2.35-2.35l-49.44.08a2.35,2.35,0,0,0-2.35,2.35v36.19l-18.45-22.86a2.28,2.28,0,0,0-4.06,1.43v28a2.41,2.41,0,0,0,2.41,2.41h0a2.41,2.41,0,0,0,2.41-2.41V335.87l18.46,22.69a2.28,2.28,0,0,0,4.05-1.44V336.56a14.07,14.07,0,0,0,19.27-20.49H570V355.2h-7.24v-9.34c0-4.17-2.5-8.37-8.13-8.37a9.62,9.62,0,0,0-5.47,1.59,2.13,2.13,0,0,0-2.12-1.34,2,2,0,0,0-2.23,2V355.2h-8.31v-11c0-3.08-4.82-3.08-4.82,0v13a2.32,2.32,0,0,0,2.32,2.32h38.15a2.15,2.15,0,0,0,2.14-2.14V350l8.67,8.85a2.08,2.08,0,0,0,1.49.63,2.23,2.23,0,0,0,2.24-2.16A2.05,2.05,0,0,0,586.07,355.88ZM546.15,326A11.91,11.91,0,1,1,534.23,314,11.93,11.93,0,0,1,546.15,326Zm12.07,29.24h-8.84v-8c0-2.68,1.84-5.54,4.58-5.54a4,4,0,0,1,4.26,4.32Z"/><path class="cls-6" d="M534.09,323.33l-4.57-5.65h-2.7a.25.25,0,0,0-.16.06h0a.25.25,0,0,0,0,.35l5.74,7.09h-3.89v2.41h4.29v1.34h-4.29v2.41h4.29v4.56h2.68v-4.56h4.29v-2.41h-4.29V327.6h4.29v-2.41h-3.91l5.74-7.09a.25.25,0,0,0,0-.35h0a.25.25,0,0,0-.16-.06h-2.7Z"/><text class="cls-22" transform="translate(361.13 560.58)">ユーザ</text><text class="cls-18" transform="translate(575.95 219.3)">4<tspan class="cls-19" x="16.88" y="0">.</tspan><tspan x="32.45" y="0">クリエイタに</tspan></text></g></svg>