<?xml version="1.0" standalone="no"?>
<!DOCTYPE svg PUBLIC "-//W3C//DTD SVG 20010904//EN"
 "http://www.w3.org/TR/2001/REC-SVG-20010904/DTD/svg10.dtd">
<svg version="1.0" xmlns="http://www.w3.org/2000/svg"
 width="260.000000pt" height="260.000000pt" viewBox="0 0 260.000000 260.000000"
 preserveAspectRatio="xMidYMid meet">
<metadata>
Created by potrace 1.11, written by Peter Selinger 2001-2013
</metadata>
<g transform="translate(0.000000,260.000000) scale(0.100000,-0.100000)"
fill="#000000" stroke="none">
<path d="M690 2148 c-181 -18 -319 -75 -404 -164 -66 -70 -101 -189 -81 -274
38 -162 167 -220 355 -160 184 59 346 15 497 -134 60 -60 541 -666 578 -730
77 -131 22 -207 -165 -230 -53 -7 -394 -8 -430 -2 -14 3 -54 7 -90 10 -63 6
-81 9 -145 22 -52 11 -163 74 -217 125 -57 53 -93 62 -121 31 -33 -36 -21 -66
45 -127 104 -94 181 -124 413 -160 69 -11 557 -13 625 -3 96 14 173 52 207
101 25 36 28 49 28 121 -1 119 -41 195 -210 396 -40 47 -130 162 -201 255
-166 219 -313 368 -409 415 -38 18 -95 40 -125 47 -82 19 -219 10 -315 -21
-105 -34 -139 -33 -174 2 -80 79 -23 239 110 307 118 61 86 59 1112 61 887 1
938 2 957 19 37 34 16 94 -33 96 -158 4 -1759 2 -1807 -3z"/>
<path d="M1828 1711 c-106 -35 -178 -137 -179 -256 -1 -93 55 -175 148 -217
61 -28 163 -30 210 -5 65 34 124 111 139 180 24 109 -38 232 -143 282 -39 19
-139 28 -175 16z m163 -100 c53 -32 83 -84 83 -145 0 -102 -70 -171 -174 -171
-126 0 -209 116 -169 236 16 46 37 69 84 90 50 23 128 18 176 -10z"/>
<path d="M1775 1555 c-34 -33 -33 -77 1 -104 15 -12 37 -21 49 -21 32 0 75 37
75 65 0 77 -73 113 -125 60z"/>
</g>
</svg>
