<svg xmlns="http://www.w3.org/2000/svg" viewBox="0 0 800 600"><defs><style>.cls-1,.cls-2{fill:#fff;}.cls-2{opacity:0;}</style></defs><title>ghostus-4-3</title><g id="レイヤー_2" data-name="レイヤー 2"><g id="FontR"><g id="ふぉんと"><rect width="800" height="600"/></g></g><g id="ショット"><path class="cls-1" d="M739.8,208.93a.82.82,0,0,0-1-1.23c-13.71,8.95-59.05,40.9-59,65.42,0,18.82,20.14,49-27.14,108.24a.82.82,0,0,0,1,1.23c13.71-8.95,59-41.11,59-65.62C712.6,298.14,692.53,268.2,739.8,208.93Z"/><rect class="cls-2" x="652.31" y="207.35" width="87.69" height="175.37"/><path class="cls-1" d="M464.42,207.35H552.1c-28.74,38.32-40.73,148.94-43.3,174.88a.55.55,0,0,1-1.09,0C505.15,356.29,493.15,245.67,464.42,207.35Z"/><rect class="cls-2" x="464.42" y="207.35" width="87.69" height="175.37"/><path class="cls-1" d="M625.74,308.78a32.61,32.61,0,1,1-63.1,0,43.48,43.48,0,1,0,63.1,0Z"/><circle class="cls-1" cx="594.19" cy="295.16" r="10.87"/><path class="cls-1" d="M123.17,338.64a21.75,21.75,0,1,1-21.74-21.74h0V210.13a2.49,2.49,0,0,0-4.92-.56C87,269.1,60.15,300.36,58.09,333.93,56.7,356.55,71.64,377.81,94,381.51a43.51,43.51,0,0,0,50.9-42.87Z"/><circle class="cls-1" cx="101.43" cy="338.64" r="10.87"/><ellipse class="cls-1" cx="118.91" cy="301.03" rx="16.31" ry="5.44" transform="translate(-204.22 282.36) rotate(-65.14)"/><ellipse class="cls-1" cx="134.04" cy="319.98" rx="10.87" ry="4.6" transform="translate(-149.34 119.86) rotate(-32.04)"/><circle class="cls-1" cx="309.06" cy="338.64" r="43.48"/><circle class="cls-1" cx="205.55" cy="338.64" r="10.87"/><ellipse class="cls-1" cx="178.38" cy="295.16" rx="5.44" ry="86.97"/><ellipse class="cls-1" cx="232.73" cy="295.16" rx="5.44" ry="86.97"/><path class="cls-1" d="M486,125.15a.69.69,0,0,0-.94-1c-20.52,14.95-107.39,81.23-107.37,132.21,0,37.57,39.23,87.65-58.24,207.19a.69.69,0,0,0,.94,1c20.51-14.94,107.39-81.23,107.38-132.21C427.79,294.77,388.56,244.69,486,125.15Z"/><path class="cls-1" d="M519.08,429.64H503.26a1.79,1.79,0,1,0,0,3.58h15.81Z"/><path class="cls-1" d="M723.9,433.22h14.31a1.79,1.79,0,1,0,0-3.58H723.9Z"/><path class="cls-1" d="M537,433.22h7.19v4.49a2.7,2.7,0,0,1-2.7,2.7h-5.39a2.7,2.7,0,0,1-2.7-2.7V425.14a2.7,2.7,0,0,1,2.7-2.7h1.8a2.7,2.7,0,0,1,2.7,2.7v.9h7.19v-1.8a5.39,5.39,0,0,0-5.39-5.39H528.06a5.39,5.39,0,0,0-5.39,5.39v14.37a5.39,5.39,0,0,0,5.39,5.39h14.37a5.39,5.39,0,0,0,5.39-5.39v-9H537Z"/><polygon class="cls-1" points="562.2 418.85 562.2 429.63 572.98 429.63 572.98 418.85 576.57 418.85 576.57 444 572.98 444 572.98 433.23 562.2 433.23 562.2 444 551.42 444 551.42 418.85 562.2 418.85"/><path class="cls-1" d="M599.93,444H585.56a5.39,5.39,0,0,1-5.39-5.39V424.24a5.39,5.39,0,0,1,5.39-5.39h14.37a5.39,5.39,0,0,1,5.39,5.39v14.37A5.39,5.39,0,0,1,599.93,444Zm1.8-6.29V425.14a2.7,2.7,0,0,0-2.7-2.7h-5.39a2.7,2.7,0,0,0-2.7,2.7v12.58a2.7,2.7,0,0,0,2.7,2.7H599A2.7,2.7,0,0,0,601.73,437.72Z"/><path class="cls-1" d="M713.12,426v-.9a2.7,2.7,0,0,0-2.7-2.7h-1.8a2.7,2.7,0,0,0-2.7,2.7v1.8a2.7,2.7,0,0,0,2.7,2.7h6.29a5.39,5.39,0,0,1,5.39,5.39v3.59a5.39,5.39,0,0,1-5.39,5.39H700.55a5.39,5.39,0,0,1-5.39-5.39v-1.8h7.19v.9a2.7,2.7,0,0,0,2.7,2.7h1.8a2.7,2.7,0,0,0,2.7-2.7v-1.8a2.7,2.7,0,0,0-2.7-2.7h-6.29a5.39,5.39,0,0,1-5.39-5.39v-3.59a5.39,5.39,0,0,1,5.39-5.39h14.37a5.39,5.39,0,0,1,5.39,5.39V426Z"/><path class="cls-1" d="M626.88,426v-.9a2.7,2.7,0,0,0-2.7-2.7h-1.8a2.7,2.7,0,0,0-2.7,2.7v1.8a2.7,2.7,0,0,0,2.7,2.7h6.29a5.39,5.39,0,0,1,5.39,5.39v3.59a5.39,5.39,0,0,1-5.39,5.39H614.3a5.39,5.39,0,0,1-5.39-5.39v-1.8h7.19v.9a2.7,2.7,0,0,0,2.7,2.7h1.8a2.7,2.7,0,0,0,2.7-2.7v-1.8a2.7,2.7,0,0,0-2.7-2.7H614.3a5.39,5.39,0,0,1-5.39-5.39v-3.59a5.39,5.39,0,0,1,5.39-5.39h14.37a5.39,5.39,0,0,1,5.39,5.39V426Z"/><path class="cls-1" d="M637.66,418.85h25.15v3.59h-4.49a2.7,2.7,0,0,0-2.7,2.7V444H644.85V425.14a2.7,2.7,0,0,0-2.7-2.7h-4.49Z"/><path class="cls-1" d="M666.41,418.85h10.78v18.87a2.7,2.7,0,0,0,2.7,2.7h5.39a2.7,2.7,0,0,0,2.7-2.7V418.85h3.59v19.76a5.39,5.39,0,0,1-5.39,5.39H671.8a5.39,5.39,0,0,1-5.39-5.39Z"/></g></g></svg>