<svg xmlns="http://www.w3.org/2000/svg" viewBox="0 0 1200 630"><defs><style>.cls-1,.cls-2{fill:#fff;}.cls-2{opacity:0;}</style></defs><title>ghostus-ogp</title><g id="レイヤー_2" data-name="レイヤー 2"><g id="レイヤー_1-2" data-name="レイヤー 1"><rect width="1200" height="630"/><path class="cls-1" d="M887.14,233a.69.69,0,0,0-.88-1c-11.56,7.54-49.76,34.46-49.75,55.11,0,15.85,17,41.25-22.86,91.19a.69.69,0,0,0,.88,1c11.56-7.54,49.7-34.64,49.69-55.29C864.22,308.2,847.31,283,887.14,233Z"/><rect class="cls-2" x="813.43" y="231.71" width="73.88" height="147.76"/><path class="cls-1" d="M655.12,231.71H729C704.78,264,694.68,357.2,692.51,379a.46.46,0,0,1-.92,0C689.43,357.2,679.33,264,655.12,231.71Z"/><rect class="cls-2" x="655.12" y="231.71" width="73.88" height="147.76"/><path class="cls-1" d="M791,317.16a27.48,27.48,0,1,1-53.17,0,36.64,36.64,0,1,0,53.17,0Z"/><circle class="cls-1" cx="764.46" cy="305.69" r="9.16"/><path class="cls-1" d="M367.6,342.32A18.33,18.33,0,1,1,349.29,324h0v-90a2.1,2.1,0,0,0-4.14-.47c-8,50.15-30.64,76.49-32.37,104.77-1.17,19.07,11.42,37,30.26,40.09a36.66,36.66,0,0,0,42.89-36.12Z"/><circle class="cls-1" cx="349.29" cy="342.32" r="9.16"/><ellipse class="cls-1" cx="364.01" cy="310.63" rx="13.74" ry="4.58" transform="translate(-70.87 510.31) rotate(-65.14)"/><ellipse class="cls-1" cx="376.76" cy="326.6" rx="9.16" ry="3.87" transform="translate(-115.88 249.64) rotate(-32.04)"/><circle class="cls-1" cx="524.22" cy="342.32" r="36.64"/><circle class="cls-1" cx="437.01" cy="342.32" r="9.16"/><ellipse class="cls-1" cx="414.12" cy="305.69" rx="4.58" ry="73.27"/><ellipse class="cls-1" cx="459.91" cy="305.69" rx="4.58" ry="73.27"/><path class="cls-1" d="M673.32,162.45a.59.59,0,0,0-.79-.85C655.24,174.19,582.05,230,582.06,273c0,31.65,33.06,73.85-49.07,174.57a.58.58,0,0,0,.79.85C551.07,435.82,624.27,380,624.26,337,624.26,305.36,591.2,263.16,673.32,162.45Z"/><path class="cls-1" d="M701.17,419H687.85a1.51,1.51,0,0,0,0,3h13.32Z"/><path class="cls-1" d="M873.74,422H885.8a1.51,1.51,0,1,0,0-3H873.74Z"/><path class="cls-1" d="M716.31,422h6.06v3.78a2.27,2.27,0,0,1-2.27,2.27h-4.54a2.27,2.27,0,0,1-2.27-2.27V415.2a2.27,2.27,0,0,1,2.27-2.27h1.51a2.27,2.27,0,0,1,2.27,2.27V416h6.06v-1.51a4.54,4.54,0,0,0-4.54-4.54H708.74a4.54,4.54,0,0,0-4.54,4.54v12.11a4.54,4.54,0,0,0,4.54,4.54h12.11a4.54,4.54,0,0,0,4.54-4.54V419h-9.08Z"/><polygon class="cls-1" points="737.5 409.9 737.5 418.99 746.58 418.99 746.58 409.9 749.61 409.9 749.61 431.1 746.58 431.1 746.58 422.01 737.5 422.01 737.5 431.1 728.42 431.1 728.42 409.9 737.5 409.9"/><path class="cls-1" d="M769.29,431.1H757.18a4.54,4.54,0,0,1-4.54-4.54V414.44a4.54,4.54,0,0,1,4.54-4.54h12.11a4.54,4.54,0,0,1,4.54,4.54v12.11A4.54,4.54,0,0,1,769.29,431.1Zm1.51-5.3V415.2a2.27,2.27,0,0,0-2.27-2.27H764a2.27,2.27,0,0,0-2.27,2.27v10.6a2.27,2.27,0,0,0,2.27,2.27h4.54A2.27,2.27,0,0,0,770.8,425.8Z"/><path class="cls-1" d="M864.66,416v-.76a2.27,2.27,0,0,0-2.27-2.27h-1.51a2.27,2.27,0,0,0-2.27,2.27v1.51a2.27,2.27,0,0,0,2.27,2.27h5.3a4.54,4.54,0,0,1,4.54,4.54v3a4.54,4.54,0,0,1-4.54,4.54H854.06a4.54,4.54,0,0,1-4.54-4.54V425h6.06v.76a2.27,2.27,0,0,0,2.27,2.27h1.51a2.27,2.27,0,0,0,2.27-2.27v-1.51a2.27,2.27,0,0,0-2.27-2.27h-5.3a4.54,4.54,0,0,1-4.54-4.54v-3a4.54,4.54,0,0,1,4.54-4.54h12.11a4.54,4.54,0,0,1,4.54,4.54V416Z"/><path class="cls-1" d="M792,416v-.76a2.27,2.27,0,0,0-2.27-2.27h-1.51a2.27,2.27,0,0,0-2.27,2.27v1.51a2.27,2.27,0,0,0,2.27,2.27h5.3a4.54,4.54,0,0,1,4.54,4.54v3a4.54,4.54,0,0,1-4.54,4.54H781.4a4.54,4.54,0,0,1-4.54-4.54V425h6.06v.76a2.27,2.27,0,0,0,2.27,2.27h1.51A2.27,2.27,0,0,0,789,425.8v-1.51A2.27,2.27,0,0,0,786.7,422h-5.3a4.54,4.54,0,0,1-4.54-4.54v-3a4.54,4.54,0,0,1,4.54-4.54h12.11a4.54,4.54,0,0,1,4.54,4.54V416Z"/><path class="cls-1" d="M801.08,409.9h21.19v3h-3.78a2.27,2.27,0,0,0-2.27,2.27v15.9h-9.08V415.2a2.27,2.27,0,0,0-2.27-2.27h-3.78Z"/><path class="cls-1" d="M825.3,409.9h9.08v15.9a2.27,2.27,0,0,0,2.27,2.27h4.54a2.27,2.27,0,0,0,2.27-2.27V409.9h3v16.65A4.54,4.54,0,0,1,842,431.1H829.84a4.54,4.54,0,0,1-4.54-4.54Z"/><path class="cls-1" d="M1040.6,541.18c-6.18-.33-10.63,5.25-10.94,10.94-.33,6.18,5.25,10.63,10.94,10.94,6.18.33,10.63-5.25,10.94-10.94A11.18,11.18,0,0,0,1040.6,541.18Zm-7.85,10.94c-.54-10.13,15.16-10.07,15.7,0C1047.91,562.24,1033.3,562.24,1032.75,552.13Z"/><circle class="cls-1" cx="1037.38" cy="550.41" r="3.22"/><path class="cls-1" d="M1066.92,571.59a2.16,2.16,0,0,0-2.06,1.4l-9,21.88L1046.62,573a2.26,2.26,0,0,0-2.12-1.45,2.53,2.53,0,0,0-2.62,2.26,1.8,1.8,0,0,0,.2.81l11.38,25.88-4.59,10.73a2.3,2.3,0,0,0-.2.86,2.45,2.45,0,0,0,2.5,2.32,2.1,2.1,0,0,0,2.06-1.4l16-38.45a1.73,1.73,0,0,0,.14-.82A2.38,2.38,0,0,0,1066.92,571.59Z"/><path class="cls-1" d="M1133.38,598,1120,584.27l12-8.81a2.08,2.08,0,0,0,.86-1.61,2.32,2.32,0,0,0-2.2-2.26,2.65,2.65,0,0,0-1.45.46l-13.42,10v-22.9a2.4,2.4,0,0,0-4.76,0v40.51a2.41,2.41,0,0,0,4.76,0V586.4L1130.13,601a2.14,2.14,0,0,0,1.53.66,2.38,2.38,0,0,0,2.38-2.26A2.1,2.1,0,0,0,1133.38,598Z"/><path class="cls-1" d="M1164.8,586.1c-.13-5.23-2.4-10.38-6.86-13.25-6.61-4.25-15.84-.48-18.49,6.51-1.7,4.48-2.08,10.52,0,14.92,4.47,9.34,17.47,9.9,23.23,1.5,1.49-2.17-2-4.2-3.51-2.05-2.87,4.19-8.12,4.91-12.55,2.81-3.14-1.48-4.24-5.16-4.44-8.41h20.56A2,2,0,0,0,1164.8,586.1Zm-21.3-5.94c2.46-5.5,10-6.41,14.2-2.35a11.35,11.35,0,0,1,2.84,6.26H1142.4A15.2,15.2,0,0,1,1143.51,580.16Z"/><path class="cls-1" d="M1102.05,595.72c-1.08.9-3.13,1.08-3.42-.75a1.62,1.62,0,0,0-.14-.45s0-.08,0-.12a38.73,38.73,0,0,1,1.34-18.21c.92-2.91-3.64-4.15-4.56-1.26-.15.48-.27,1-.41,1.45l-.42-.66a11.55,11.55,0,0,0-8.69-3.89c-9.61,0-13,7.56-13,14.64s3.43,14.75,13,14.75a11.18,11.18,0,0,0,8.63-4,6.8,6.8,0,0,0,4.11,3.55c2.43.9,5-.19,6.91-1.75C1107.74,597.11,1104.38,593.78,1102.05,595.72ZM1085.75,597c-6.2,0-8.41-5.43-8.41-10.52s2.21-10.41,8.41-10.41c4.54,0,6.92,2.92,7.86,6.47a27.17,27.17,0,0,1,0,7.19,8.81,8.81,0,0,1-1.26,3.74A7.35,7.35,0,0,1,1085.75,597Z"/><path class="cls-1" d="M1179.16,522.35H992.76c-7.64,0-13.86,1.09-19.92,5.4-10.88,7.73-6.4,25.28,8.06,21.12,5-1.43,7.72-2.53,13-1s9.37,5.11,12.73,9.08l17.81,22.56c3.4,4.3,10.83,12.42,2.3,15.61-4.87,1.82-21.68,1.73-32.26-.07-5.13-.87-8.84-3.62-12.45-7.23-2.31-2.31-5.89,1.27-3.58,3.58,4.5,4.5,7.25,6.54,13.55,7.87,6.93,1.46,14.07,1.55,21.12,1.55s22.87,1.37,22.72-9.67c-.11-7.94-7.5-14.82-12.15-20.71-5.27-6.67-10.22-13.9-16.15-20-4.17-4.3-9.11-7.47-15.08-8.18a23.72,23.72,0,0,0-9,.56c-1.67.47-4,1.23-5.63,1.72-5.57,1.6-7.16-4.74-5.48-8.63,3.08-7.15,12-8.65,20.57-8.65h186.26C1182.3,527.21,1182.3,522.35,1179.16,522.35Z"/></g></g></svg>