<svg xmlns="http://www.w3.org/2000/svg" viewBox="0 0 124.47 53.01"><defs><style>.cls-1{fill:#fff;}</style></defs><title>ninka_white</title><g id="レイヤー_2" data-name="レイヤー 2"><g id="レイヤー_1-2" data-name="レイヤー 1"><path class="cls-1" d="M63.53,42.45"/><path class="cls-1" d="M122,29.31a2.3,2.3,0,0,0-2.36,1.63A9.91,9.91,0,0,0,113.82,29c-7.87,0-10.68,6.16-10.68,11.92s2.8,12,10.68,12a9.32,9.32,0,0,0,6-2.1,2.17,2.17,0,0,0,2.34,1.79,2.13,2.13,0,0,0,2.35-2V31.46A2.25,2.25,0,0,0,122,29.31Zm-8.22,19.23c-4.42,0-6-3.94-6-7.64,0-1.77.43-7.55,6-7.55s6,6.29,6,7.55S119.47,48.54,113.81,48.54Z"/><path class="cls-1" d="M98.24,49l-9.3-9.51,8.19-6a2.26,2.26,0,0,0,.92-1.77,2.44,2.44,0,0,0-2.36-2.4,2.67,2.67,0,0,0-1.45.45L85.16,36.5V2.61A2.62,2.62,0,0,0,82.55,0L27.62.09A2.61,2.61,0,0,0,25,2.7V42.91L4.51,17.52A2.54,2.54,0,0,0,0,19.11V50.25a2.68,2.68,0,0,0,2.68,2.68h0a2.68,2.68,0,0,0,2.68-2.68V26.76L25.87,52a2.54,2.54,0,0,0,4.5-1.6V27.53A15.64,15.64,0,0,0,51.78,4.76H80.4V48.24h-8V37.86c0-4.63-2.78-9.3-9-9.3a10.69,10.69,0,0,0-6.08,1.77,2.37,2.37,0,0,0-2.36-1.48A2.26,2.26,0,0,0,52.41,31V48.24H43.33V36c0-3.43-5.36-3.43-5.36,0v14.4A2.58,2.58,0,0,0,40.54,53H82.78a2.39,2.39,0,0,0,2.38-2.38V42.46L94.8,52.3a2.31,2.31,0,0,0,1.65.7,2.48,2.48,0,0,0,2.49-2.4A2.28,2.28,0,0,0,98.24,49ZM53.88,15.74A13.24,13.24,0,1,1,40.65,2.51,13.25,13.25,0,0,1,53.88,15.74ZM67.3,48.24H57.47V39.39c0-3,2-6.16,5.09-6.16A4.48,4.48,0,0,1,67.3,38Z"/><path class="cls-1" d="M40.65,12.83,35.57,6.55h-3a.27.27,0,0,0-.22.45l6.37,7.88H34.41v2.68h4.76v1.49H34.41v2.68h4.76V26.8h3V21.74h4.76V19.06H42.15V17.57h4.76V14.89H42.57L48.94,7a.27.27,0,0,0-.22-.45h-3Z"/></g></g></svg>