<svg xmlns="http://www.w3.org/2000/svg" viewBox="0 0 800 600"><defs><style>.cls-1{fill:#0004b5;}.cls-2{fill:#fff;}</style></defs><title>Syake-4-3</title><g id="レイヤー_2" data-name="レイヤー 2"><g id="レイヤー_1-2" data-name="レイヤー 1"><rect class="cls-1" width="800" height="600"/><rect class="cls-1" x="100" y="90" width="600" height="420"/><path class="cls-2" d="M312,243.58c-16.21-.87-27.9,13.78-28.7,28.71C282.38,288.5,297,300.19,312,301c16.2.87,27.89-13.77,28.69-28.7C339.79,256.05,328.21,244.46,312,243.58Zm-20.6,28.71c-1.43-26.57,39.77-26.43,41.19,0C331.13,298.83,292.79,298.83,291.36,272.29Z"/><path class="cls-2" d="M312,267.79a8.44,8.44,0,1,1-8.45-8.45A8.44,8.44,0,0,1,312,267.79Z"/><path class="cls-2" d="M381,323.36A5.67,5.67,0,0,0,375.6,327L352,384.45l-24.24-57.27a5.92,5.92,0,0,0-5.56-3.81c-3.25,0-6.87,2.44-6.87,5.93a4.73,4.73,0,0,0,.52,2.12l29.87,67.91-12.05,28.16a6,6,0,0,0-.51,2.26c0,3.64,3.39,6.08,6.55,6.08a5.52,5.52,0,0,0,5.41-3.66l42.09-100.89a4.55,4.55,0,0,0,.37-2.15C387.56,325.57,384.16,323.36,381,323.36Z"/><path class="cls-2" d="M555.37,392.61l-35.19-36,31.51-23.12a5.45,5.45,0,0,0,2.26-4.23,6.08,6.08,0,0,0-5.76-5.93,7,7,0,0,0-3.81,1.22l-35.22,26.14V290.65c0-3.55-3.13-5.41-6.23-5.41s-6.24,1.86-6.24,5.41V396.94c0,3.48,3.14,5.29,6.24,5.29s6.23-1.81,6.23-5.29V362.21l37.68,38.44a5.61,5.61,0,0,0,4,1.74,6.25,6.25,0,0,0,6.24-5.92A5.5,5.5,0,0,0,555.37,392.61Z"/><path class="cls-2" d="M637.83,361.44c-.34-13.72-6.29-27.23-18-34.77-17.34-11.16-41.57-1.26-48.52,17.07-4.45,11.75-5.45,27.6.08,39.15,11.74,24.5,45.84,26,60.94,3.94,3.9-5.7-5.35-11-9.2-5.38-7.54,11-21.3,12.87-32.93,7.38-8.23-3.88-11.12-13.53-11.65-22.07h54A5.36,5.36,0,0,0,637.83,361.44ZM582,345.85c6.45-14.43,26.29-16.83,37.24-6.17,4.13,4,6.5,10.37,7.46,16.42H579A39.89,39.89,0,0,1,582,345.85Z"/><path class="cls-2" d="M473.19,386.67c-2.84,2.36-8.2,2.84-9-2a4.25,4.25,0,0,0-.37-1.19c0-.11,0-.21,0-.32a101.61,101.61,0,0,1,3.51-47.78c2.41-7.65-9.56-10.9-12-3.3-.39,1.27-.72,2.54-1.07,3.81l-1.09-1.74C449.14,329.11,440.52,324,430.4,324c-25.22,0-34.21,19.84-34.21,38.41s9,38.69,34.21,38.69A29.35,29.35,0,0,0,453,390.72c1.85,4.57,6.17,7.59,10.8,9.32,6.39,2.37,13.2-.5,18.12-4.6C488.11,390.32,479.28,381.59,473.19,386.67ZM430.4,390c-16.28,0-22.08-14.25-22.08-27.6s5.8-27.31,22.08-27.31c11.9,0,18.14,7.66,20.61,17,1.08,4.44.58,13.44,0,18.86a23.11,23.11,0,0,1-3.29,9.82C444.27,386.22,438.71,390,430.4,390Z"/><path class="cls-2" d="M675.5,194.17H186.45c-20,0-36.36,2.87-52.25,14.16-28.56,20.28-16.79,66.32,21.14,55.4,13-3.75,20.26-6.63,34.08-2.75,13.46,3.78,24.59,13.42,33.41,23.83L269.56,344c8.91,11.29,28.41,32.59,6,41-12.77,4.78-56.87,4.54-84.64-.18-13.46-2.29-23.18-9.49-32.67-19-6.07-6.06-15.46,3.34-9.4,9.4,11.81,11.81,19,17.17,35.56,20.65,18.17,3.83,36.92,4.08,55.42,4.08,18.8,0,60,3.59,59.61-25.38-.28-20.83-19.67-38.88-31.87-54.33-13.82-17.51-26.81-36.48-42.36-52.52-10.93-11.28-23.91-19.6-39.57-21.45A62.23,62.23,0,0,0,162,247.74c-4.38,1.24-10.37,3.24-14.77,4.5-14.62,4.21-18.77-12.44-14.38-22.65,8.08-18.77,31.45-22.7,54-22.7l488.7,0C683.73,206.93,683.73,194.17,675.5,194.17Z"/></g></g></svg>