<svg xmlns="http://www.w3.org/2000/svg" viewBox="0 0 628.88 269.77"><defs><style>.cls-1{fill:#4d4d4d;}</style></defs><title>syake_gray</title><g id="レイヤー_2" data-name="レイヤー 2"><g id="レイヤー_1-2" data-name="レイヤー 1"><path class="cls-1" d="M216.16,55.16c-18.1-1-31.15,15.38-32,32-1,18.09,15.38,31.14,32,32,18.09,1,31.14-15.38,32-32C247.22,69.08,234.3,56.14,216.16,55.16Zm-23,32c-1.59-29.66,44.4-29.5,46,0C237.56,116.84,194.76,116.83,193.16,87.21Z"/><path class="cls-1" d="M216.16,82.18a9.42,9.42,0,1,1-9.43-9.43A9.42,9.42,0,0,1,216.16,82.18Z"/><path class="cls-1" d="M293.24,144.22a6.33,6.33,0,0,0-6,4.09l-26.36,64.09-27.06-63.93a6.61,6.61,0,0,0-6.2-4.26c-3.63,0-7.67,2.72-7.67,6.62a5.28,5.28,0,0,0,.58,2.36L253.83,229l-13.46,31.44a6.73,6.73,0,0,0-.57,2.53c0,4.06,3.79,6.79,7.32,6.79a6.16,6.16,0,0,0,6-4.09l47-112.62a5.08,5.08,0,0,0,.42-2.39C300.55,146.68,296.75,144.22,293.24,144.22Z"/><path class="cls-1" d="M487.88,221.52,448.6,181.37l35.17-25.81a6.09,6.09,0,0,0,2.53-4.72,6.79,6.79,0,0,0-6.44-6.62,7.77,7.77,0,0,0-4.25,1.36L436.3,174.76V107.7c0-4-3.5-6-7-6s-7,2.08-7,6V226.36c0,3.88,3.51,5.91,7,5.91s7-2,7-5.91V187.59l42.06,42.91a6.26,6.26,0,0,0,4.49,1.95,7,7,0,0,0,7-6.61A6.14,6.14,0,0,0,487.88,221.52Z"/><path class="cls-1" d="M579.93,186.72c-.38-15.31-7-30.4-20.09-38.81-19.36-12.45-46.4-1.41-54.16,19.06-5,13.12-6.08,30.82.09,43.71,13.1,27.35,51.17,29,68,4.4,4.36-6.36-6-12.31-10.27-6-8.42,12.28-23.78,14.37-36.76,8.24-9.18-4.33-12.41-15.1-13-24.64H574A6,6,0,0,0,579.93,186.72Zm-62.37-17.4c7.2-16.11,29.35-18.79,41.58-6.88,4.61,4.49,7.25,11.57,8.33,18.33H514.3A44.53,44.53,0,0,1,517.56,169.32Z"/><path class="cls-1" d="M396.14,214.89c-3.17,2.63-9.15,3.18-10-2.19a4.75,4.75,0,0,0-.42-1.33c0-.12,0-.23,0-.36a113.43,113.43,0,0,1,3.92-53.34c2.69-8.54-10.68-12.17-13.35-3.69-.44,1.41-.8,2.84-1.2,4.25l-1.22-1.95c-4.53-5.66-14.15-11.38-25.45-11.38-28.16,0-38.19,22.15-38.19,42.87,0,20.88,10,43.19,38.19,43.19a32.76,32.76,0,0,0,25.28-11.57c2.07,5.11,6.89,8.47,12.05,10.41,7.13,2.65,14.73-.56,20.22-5.14C412.79,219,402.95,209.22,396.14,214.89Zm-47.76,3.71c-18.17,0-24.64-15.91-24.64-30.81,0-14.74,6.47-30.49,24.64-30.49,13.29,0,20.25,8.55,23,18.94,1.21,5,.64,15,0,21.06a25.8,25.8,0,0,1-3.68,11C363.86,214.39,357.66,218.6,348.38,218.6Z"/><path class="cls-1" d="M622,0H76C53.68,0,35.45,3.21,17.71,15.81-14.17,38.44-1,89.84,41.31,77.65c14.56-4.19,22.62-7.4,38-3.07,15,4.22,27.45,15,37.29,26.61l52.17,66.09c9.95,12.6,31.72,36.39,6.72,45.72-14.26,5.33-63.48,5.07-94.48-.2-15-2.56-25.88-10.59-36.47-21.18-6.77-6.77-17.26,3.72-10.49,10.49,13.18,13.18,21.24,19.17,39.69,23.05,20.29,4.27,41.22,4.55,61.86,4.55,21,0,67,4,66.54-28.34-.31-23.25-22-43.41-35.57-60.65C151.2,121.18,136.71,100,119.34,82.09,107.14,69.5,92.66,60.22,75.17,58.14A69.46,69.46,0,0,0,48.74,59.8c-4.89,1.38-11.58,3.62-16.49,5-16.32,4.7-21-13.89-16.05-25.28,9-21,35.11-25.35,60.25-25.35l545.54,0C631.17,14.24,631.17,0,622,0Z"/></g></g></svg>