<svg xmlns="http://www.w3.org/2000/svg" xmlns:xlink="http://www.w3.org/1999/xlink" viewBox="0 0 800 600"><defs><style>.cls-1{fill:none;}.cls-2{fill:#eb6822;stroke:#eb6822;stroke-miterlimit:10;}.cls-3{fill:#9c876e;}.cls-4{fill:#fffcec;}.cls-14,.cls-5{fill:#fff;}.cls-5{opacity:0;}.cls-6{fill:gray;}.cls-7{fill:url(#Unnamed_Pattern_35);}.cls-8{fill:#666;}.cls-9{fill:#989898;}.cls-10{fill:#4d4d4d;}.cls-11{fill:url(#新規パターンスウォッチ_9);}.cls-12{fill:url(#Unnamed_Pattern_35-5);}.cls-13{fill:url(#新規パターンスウォッチ_7);}</style><pattern id="Unnamed_Pattern_35" data-name="Unnamed Pattern 35" width="41" height="41" patternTransform="translate(-1222.84 -973.34) scale(15.32)" patternUnits="userSpaceOnUse" viewBox="0 0 41 41"><rect class="cls-1" width="41" height="41"/><rect class="cls-2" x="0.5" y="0.5" width="40" height="40"/></pattern><pattern id="新規パターンスウォッチ_9" data-name="新規パターンスウォッチ 9" width="41" height="41" patternTransform="translate(-931.7 -1325.79) scale(15.32)" patternUnits="userSpaceOnUse" viewBox="0 0 41 41"><rect class="cls-1" width="41" height="41"/><rect class="cls-2" x="0.5" y="0.5" width="40" height="40"/></pattern><pattern id="Unnamed_Pattern_35-5" data-name="Unnamed Pattern 35" width="41" height="41" patternTransform="translate(-916.37 -1570.97) scale(15.32)" patternUnits="userSpaceOnUse" viewBox="0 0 41 41"><rect class="cls-1" width="41" height="41"/><rect class="cls-2" x="0.5" y="0.5" width="40" height="40"/></pattern><pattern id="新規パターンスウォッチ_7" data-name="新規パターンスウォッチ 7" width="36" height="36" patternTransform="translate(-717.16 -2413.78) scale(15.32)" patternUnits="userSpaceOnUse" viewBox="0 0 36 36"><rect class="cls-1" width="36" height="36"/><rect class="cls-3" width="36" height="36"/></pattern></defs><title>syakerake-4-3</title><g id="レイヤー_2" data-name="レイヤー 2"><g id="ショット"><rect class="cls-4" width="800" height="600"/><rect class="cls-5" x="65.31" y="184.29" width="669.38" height="251.02"/><path class="cls-6" d="M280.13,184h-28v34.25a9.34,9.34,0,0,1-18.68,0V184h-28a15.57,15.57,0,0,0-15.57,15.57v56h52.93a9.34,9.34,0,0,1,0,18.68H189.85a15.57,15.57,0,0,0,15.57,15.57h74.72a15.56,15.56,0,0,0,15.57-15.57V199.57A15.57,15.57,0,0,0,280.13,184Z"/><path class="cls-7" d="M466.94,308.54H392.22a15.57,15.57,0,0,0-15.57,15.57v74.72a15.57,15.57,0,0,0,15.57,15.57h28L414,370.8h31.13l-6.23,43.59h28a15.57,15.57,0,0,0,15.57-15.57V324.1A15.57,15.57,0,0,0,466.94,308.54Zm-37.36,49.81a15.57,15.57,0,1,1,15.57-15.57A15.56,15.56,0,0,1,429.58,358.35Z"/><path class="cls-8" d="M404.67,184H329.95a15.57,15.57,0,0,0-15.57,15.57v74.72a15.57,15.57,0,0,0,15.57,15.57h21.79v-28a15.57,15.57,0,0,1,31.14,0v28h21.79a15.57,15.57,0,0,0,15.57-15.57V199.57A15.57,15.57,0,0,0,404.67,184Zm-37.36,49.81a15.57,15.57,0,1,1,15.57-15.57A15.56,15.56,0,0,1,367.31,233.81Z"/><path class="cls-9" d="M108.9,208.91a9.34,9.34,0,0,1,9.34-9.34h52.93A15.57,15.57,0,0,0,155.6,184H80.88a15.57,15.57,0,0,0-15.57,15.57v56h52.93a9.34,9.34,0,0,1,0,18.68H65.31a15.56,15.56,0,0,0,15.57,15.57H155.6a15.57,15.57,0,0,0,15.57-15.57v-56H118.24A9.34,9.34,0,0,1,108.9,208.91Z"/><path class="cls-10" d="M616.38,205.79h52.93v-6.23A15.57,15.57,0,0,0,653.74,184H579a15.57,15.57,0,0,0-15.57,15.57v74.72A15.56,15.56,0,0,0,579,289.86h74.72a15.57,15.57,0,0,0,15.57-15.57v-6.23H616.38a9.34,9.34,0,1,1,0-18.68h52.93V224.47H616.38a9.34,9.34,0,1,1,0-18.68Z"/><path class="cls-11" d="M678.65,330.33h52.93V324.1A15.57,15.57,0,0,0,716,308.54H641.29a15.57,15.57,0,0,0-15.57,15.57v74.72a15.57,15.57,0,0,0,15.57,15.57H716a15.57,15.57,0,0,0,15.57-15.57V392.6H678.65a9.34,9.34,0,1,1,0-18.68h52.93V349H678.65a9.34,9.34,0,1,1,0-18.68Z"/><path class="cls-7" d="M358,349V324.1a15.57,15.57,0,0,0-15.57-15.57H267.68a15.57,15.57,0,0,0-15.57,15.57v74.72a15.57,15.57,0,0,0,15.57,15.57h21.79l6.23-40.47h18.68l6.23,40.47H342.4A15.57,15.57,0,0,0,358,398.83V380.14A15.57,15.57,0,0,1,358,349ZM305,358.35a15.57,15.57,0,1,1,15.57-15.57A15.56,15.56,0,0,1,305,358.35Z"/><path class="cls-10" d="M541.66,221.36h3.11V199.57A15.57,15.57,0,0,0,529.21,184h-28v28a9.34,9.34,0,1,1-18.68,0V184h-28a15.57,15.57,0,0,0-15.57,15.57v74.72a15.57,15.57,0,0,0,15.57,15.57h28v-28a9.34,9.34,0,0,1,18.68,0v28h28a15.57,15.57,0,0,0,15.57-15.57V252.5h-3.11a15.57,15.57,0,1,1,0-31.13Z"/><path class="cls-12" d="M603.93,345.9H607V324.1a15.57,15.57,0,0,0-15.57-15.57h-28v28a9.34,9.34,0,0,1-18.68,0v-28h-28a15.57,15.57,0,0,0-15.57,15.57v74.72a15.57,15.57,0,0,0,15.57,15.57h28v-28a9.34,9.34,0,0,1,18.68,0v28h28A15.57,15.57,0,0,0,607,398.83V377h-3.11a15.57,15.57,0,0,1,0-31.13Z"/><path class="cls-13" d="M84,296.08a18.7,18.7,0,0,0-18.68,18.68v15.57A18.7,18.7,0,0,0,84,349H217.87a18.7,18.7,0,0,0,18.68-18.68V314.76A12.47,12.47,0,0,1,249,302.31H734.69v-6.23Z"/><path class="cls-14" d="M79,316.3a41.4,41.4,0,0,1,7.78,2.92L84.7,323.3a45.57,45.57,0,0,0-7.78-3.14Zm.4,14.16c9.27-2.74,16.24-7.65,20.54-16.83a42.83,42.83,0,0,0,4.14,3.11,34.73,34.73,0,0,1-20.69,17.52.85.85,0,0,1-.53.9Zm3.49-21.78a50.09,50.09,0,0,1,7.87,3.08l-2.33,4a42.5,42.5,0,0,0-7.69-3.39Z"/><path class="cls-14" d="M132,319a.94.94,0,0,1-.59.37,29,29,0,0,1-5.57,8.46,19.43,19.43,0,0,0-3.05-2.18,24.62,24.62,0,0,0,3.39-4.42L121,322.37l2.83,12.32-3.83.78-2.77-12.26-5.94,1.4-.87-3.48,6.1-1.31-1.46-6,4.79-.5c0,.37-.31.59-.68.78l1.15,4.92,8.34-1.81.37-.22Z"/><path class="cls-14" d="M165.23,314.31v4.48h-6.07a.74.74,0,0,1-.65.4c-1.15,6.44-3.67,12.48-9.9,16.21a37.75,37.75,0,0,0-4.2-2.89,18.24,18.24,0,0,0,9.15-13.72h-6a34.88,34.88,0,0,1-4.36,5.69,40.63,40.63,0,0,0-4.32-2.27c4-3.48,6.85-9.4,8-14.47l5.72,1.15a1,1,0,0,1-.93.56c-.34,1.06-1.09,3.08-1.87,4.86Z"/><path class="cls-14" d="M196,318.1a1.37,1.37,0,0,1-.68.56c-2.92,9.55-7.5,14.1-16.9,16.8a18.85,18.85,0,0,0-2.89-3.73c7.5-1.77,12.6-6,13.88-10.64h-18v-4.42h20l.53-.34Zm-3.73-5H174.43V308.8h17.83Z"/><path class="cls-14" d="M227.5,314.31v4.48h-6.07a.74.74,0,0,1-.65.4c-1.15,6.44-3.67,12.48-9.9,16.21a37.66,37.66,0,0,0-4.2-2.89,18.25,18.25,0,0,0,9.15-13.72h-6a34.93,34.93,0,0,1-4.36,5.69,40.64,40.64,0,0,0-4.32-2.27c4-3.48,6.84-9.4,8-14.47l5.73,1.15a1,1,0,0,1-.93.56c-.34,1.06-1.09,3.08-1.87,4.86Z"/></g></g></svg>